<?xml version="1.0" encoding="utf-8"?>
<!-- Generator: Adobe Illustrator 28.1.0, SVG Export Plug-In . SVG Version: 6.00 Build 0)  -->
<svg version="1.1" id="Camada_6" xmlns="http://www.w3.org/2000/svg" xmlns:xlink="http://www.w3.org/1999/xlink" x="0px" y="0px"
	 viewBox="0 0 1059.4 282.6" style="enable-background:new 0 0 1059.4 282.6;" xml:space="preserve">
<style type="text/css">
	.st0{fill:none;stroke:#FFFFFF;stroke-width:3;stroke-miterlimit:10;}
	.st1{fill:#FFFFFF;}
</style>
<path class="st0" d="M146.23,62.93H34.22c-10.83,0-19.61-8.78-19.61-19.61v-0.07c0-10.83,8.78-19.61,19.61-19.61h112.02
	c10.83,0,19.61,8.78,19.61,19.61v0.07C165.84,54.15,157.06,62.93,146.23,62.93z M165.84,147.11v100.92
	c0,10.83-8.78,19.61-19.61,19.61H34.51c-10.83,0-19.61-8.78-19.61-19.61v-0.07c0-10.83,8.78-19.61,19.61-19.61h68.3
	c10.83,0,19.61-8.78,19.61-19.61v-22.81c0-10.83-8.78-19.61-19.61-19.61h-68.3c-10.83,0-19.61-8.78-19.61-19.61
	c0-10.85,8.82-19.64,19.68-19.61l111.73,0.4C157.1,127.54,165.84,136.31,165.84,147.11z"/>
<path class="st1" d="M236.5,23.64h221.76c11.28,0,20.42,9.14,20.42,20.42v203.15c0,11.28-9.14,20.42-20.42,20.42h-0.51
	c-11.28,0-20.42-9.14-20.42-20.42V65h-49.11c-11.28,0-20.42,9.14-20.42,20.42v161.79c0,11.28-9.14,20.42-20.42,20.42
	c-11.28,0-20.42-9.14-20.42-20.42V85.42c0-11.28-9.14-20.42-20.42-20.42h-49.1v182.22c0,11.28-9.14,20.42-20.42,20.42h-0.51
	c-11.28,0-20.42-9.14-20.42-20.42V44.07C216.09,32.79,225.23,23.64,236.5,23.64z"/>
<path class="st0" d="M552.35,22.33c11.99,0,21.71,9.72,21.71,21.71v200.57c0,11.99-9.72,21.71-21.71,21.71
	c-11.99,0-21.71-9.72-21.71-21.71V44.04C530.64,32.04,540.36,22.33,552.35,22.33z"/>
<path class="st1" d="M625.9,35.99c0-9,7.29-16.3,16.29-16.3h79.86c16.08,0,31.59,2.47,46.52,7.41
	c14.93,4.94,28.14,12.47,39.63,22.57c11.49,10.11,20.68,22.81,27.57,38.08c6.89,15.28,10.34,33.26,10.34,53.93
	c0,20.91-3.96,39-11.89,54.28c-7.93,15.28-18.15,27.91-30.67,37.91c-12.53,9.99-26.42,17.46-41.7,22.4
	c-15.28,4.94-30.27,7.41-44.97,7.41h-39.05c-5.33,0-10.32-2.61-13.37-6.98l-35.64-51.17c-1.9-2.73-2.92-5.98-2.92-9.31L625.9,35.99
	L625.9,35.99z M740.15,219.75c12.06-3.1,22.57-7.93,31.53-14.47c8.96-6.55,16.02-15.05,21.19-25.5c5.17-10.45,7.76-23.14,7.76-38.08
	c0-14.7-2.3-27.34-6.89-37.91c-4.6-10.57-10.97-19.13-19.13-25.68c-8.16-6.55-17.81-11.37-28.95-14.47
	c-11.15-3.1-23.38-4.65-36.7-4.65h-23.34c-9,0-16.29,7.3-16.29,16.3v108.85c0,3.23,0.96,6.4,2.77,9.08l16.1,23.98
	c3.03,4.51,8.1,7.21,13.53,7.21C715.27,224.4,728.09,222.85,740.15,219.75z"/>
<path class="st0" d="M896.37,44.51v-0.07c0-10.83,8.78-19.61,19.61-19.61h112.02c10.83,0,19.61,8.78,19.61,19.61v0.07
	c0,10.83-8.78,19.61-19.61,19.61H915.98C905.15,64.12,896.37,55.34,896.37,44.51z M915.9,128.69l111.73-0.4
	c10.86-0.04,19.68,8.75,19.68,19.61c0,10.83-8.78,19.61-19.61,19.61H959.4c-10.83,0-19.61,8.78-19.61,19.61v22.81
	c0,10.83,8.78,19.61,19.61,19.61h68.31c10.83,0,19.61,8.78,19.61,19.61v0.07c0,10.83-8.78,19.61-19.61,19.61H915.98
	c-10.83,0-19.61-8.78-19.61-19.61V148.29C896.37,137.49,905.1,128.72,915.9,128.69z"/>
</svg>
